<?xml version="1.0" encoding="utf-8"?>
<!-- Generator: Adobe Illustrator 25.3.1, SVG Export Plug-In . SVG Version: 6.00 Build 0)  -->
<svg version="1.1" id="Layer_1" xmlns="http://www.w3.org/2000/svg" 
     xmlns:xlink="http://www.w3.org/1999/xlink" 
     x="0px" y="0px"
     viewBox="0 0 504 158.43" 
     width="212" height="69.215"
     style="enable-background:new 0 0 504 158.43;" 
     xml:space="preserve">
<style type="text/css">
	.st0{fill:#FFFFFF;}
	.st1{fill-rule:evenodd;clip-rule:evenodd;fill:#FFFFFF;}
	.st2{fill-rule:evenodd;clip-rule:evenodd;fill:#EDBA29;}
	.st3{fill:#EDBA29;}
	.st4{fill:#F6A601;}
	.st5{fill:#881A12;}
	.st6{fill-rule:evenodd;clip-rule:evenodd;fill:#881A12;}
	.st7{fill-rule:evenodd;clip-rule:evenodd;fill:#F6A601;}
	.st8{fill:#841918;}
	.st9{fill-rule:evenodd;clip-rule:evenodd;fill:#841918;}
	.st10{fill-rule:evenodd;clip-rule:evenodd;fill:#F6A324;}
	.st11{fill:#F6A600;}
</style>
<g>
	<path class="st0" d="M135.12,42.59c-2.85,0-4.02,1.09-4.02,3.77v1.09c0,2.77,0.84,3.6,4.44,4.45l19.87,4.36
		c11.74,2.52,15.68,6.54,15.68,15.93v4.19c0,9.05-6.04,14-17.27,14h-37.89l1.09-7.8c0.34-2.35,1.51-3.35,4.02-3.35h32.02
		c2.94,0,4.28-1.09,4.28-3.86v-2.35c0-2.85-0.92-3.77-4.7-4.61l-19.2-4.19c-11.82-2.6-16.09-6.96-16.09-16.35v-2.35
		c0-9.14,6.03-14.09,17.27-14.09h34.29l-1.17,7.8c-0.34,2.35-1.51,3.35-4.03,3.35H135.12z"/>
	<path class="st0" d="M177.96,31.44h13.75v37.39c0,8.05,3.86,11.07,13,11.07h2.76c9.14,0,13-3.02,13-11.07V31.44h13.75v36.97
		c0,15.34-7.8,22.72-26.49,22.72h-3.19c-18.78,0-26.58-7.38-26.58-22.72V31.44z"/>
	<path class="st0" d="M276.13,31.44c18.78,0,26.58,7.38,26.58,22.72v13.5c0,15.34-7.8,22.72-26.58,22.72H242.6V31.44H276.13z
		 M256.35,42.59v36.64h19.62c8.89,0,12.99-3.1,12.99-11.07v-14.5c0-7.97-4.1-11.07-12.99-11.07H256.35z"/>
	<polygon class="st0" points="310.17,90.38 310.17,31.44 323.92,31.44 323.92,54.66 352.84,54.66 352.84,31.44 366.59,31.44 
		366.59,90.38 352.84,90.38 352.84,65.81 323.92,65.81 323.92,90.38 	"/>
	<path class="st0" d="M398.62,34.13c0.92-2.01,2.35-2.85,4.53-2.85h6.62c2.1,0,3.6,0.84,4.53,2.85l26.33,56.25h-11.74
		c-2.35,0-4.03-1-4.78-2.85l-4.53-10.4c-0.25-0.59-0.59-0.76-1.18-0.76h-23.89c-0.59,0-0.92,0.17-1.17,0.76l-4.61,10.4
		c-0.76,1.85-2.43,2.85-4.78,2.85h-11.74L398.62,34.13z M414.13,66.07c0.5,0,0.67-0.34,0.5-0.76l-8.22-20.21l-8.21,20.21
		c-0.17,0.42,0,0.76,0.5,0.76H414.13z"/>
	<path class="st0" d="M446.24,90.38V31.44h11.9c6.79,0,9.39,1.01,12.16,6.46l19.2,38.06c0.59,1,1.07,1.34,1.07,1.34l-0.15-16.43
		V31.44H504v58.94h-11.9c-6.88,0-9.39-1-12.16-6.45l-19.2-38.06c-0.5-1-0.84-1.34-1.76-1.34h0.8l0.04,45.86H446.24z"/>
	<path class="st4" d="M309.03,128.47v-11.63l-0.56-6.5h0.23c0.37,0,0.5,0.13,0.7,0.54l7.59,15.04c1.1,2.16,2.09,2.56,4.81,2.56h4.71
		v-23.3h-5.37v11.63l0.56,6.5h-0.24c-0.36,0-0.46-0.13-0.69-0.54l-7.59-15.04c-1.09-2.16-2.11-2.55-4.8-2.55h-4.71v23.3H309.03z
		 M284.87,118.86c-0.2,0-0.26-0.13-0.2-0.3l2.22-5.01l0.93-2.74h0.2l0.97,2.74l2.18,5.01c0.08,0.17,0,0.3-0.2,0.3H284.87z
		 M274.39,128.47h4.64c0.93,0,1.6-0.39,1.89-1.13l1.82-4.11c0.1-0.23,0.24-0.3,0.47-0.3h9.44c0.23,0,0.37,0.07,0.47,0.3l1.79,4.11
		c0.3,0.73,0.96,1.13,1.89,1.13h4.64l-10.41-22.24c-0.36-0.8-0.96-1.13-1.79-1.13h-2.62c-0.86,0-1.43,0.33-1.78,1.13L274.39,128.47z
		 M258.92,124.33c-3.88,0-5.04-1.46-5.04-4.64v-5.73c0-3.19,1.16-4.64,5.04-4.64h4.1c3.88,0,5.05,1.46,5.05,4.64v5.73
		c0,3.18-1.17,4.64-5.05,4.64H258.92z M263.09,128.77c7.43,0,10.41-3.15,10.41-9.25v-5.4c0-6.1-2.98-9.24-10.41-9.24h-4.24
		c-7.42,0-10.41,3.15-10.41,9.24v5.4c0,6.11,2.99,9.25,10.41,9.25H263.09z M246.99,125.39c-0.13-0.93-0.6-1.32-1.59-1.32h-8.52
		c-1.73,0-2.28-0.5-2.28-2.02v-16.87h-5.44v17.3c0,4.01,1.99,6,6.1,6h12.17L246.99,125.39z M206.36,109.58
		c3.51,0,5.14,1.23,5.14,4.38v5.73c0,3.15-1.63,4.38-5.14,4.38h-7.75v-14.49H206.36z M193.17,105.17v23.3h13.26
		c7.42,0,10.5-2.91,10.5-8.98v-5.34c0-6.07-3.08-8.98-10.5-8.98H193.17z M190.42,125.39c-0.13-0.93-0.6-1.32-1.59-1.32h-8.52
		c-1.73,0-2.28-0.5-2.28-2.02v-16.87h-5.44v17.3c0,4.01,1.99,6,6.1,6h12.17L190.42,125.39z M154.36,124.33
		c-3.88,0-5.04-1.46-5.04-4.64v-5.73c0-3.19,1.16-4.64,5.04-4.64h4.1c3.88,0,5.05,1.46,5.05,4.64v5.73c0,3.18-1.17,4.64-5.05,4.64
		H154.36z M158.54,128.77c7.43,0,10.41-3.15,10.41-9.25v-5.4c0-6.1-2.98-9.24-10.41-9.24h-4.24c-7.42,0-10.41,3.15-10.41,9.24v5.4
		c0,6.11,2.99,9.25,10.41,9.25H158.54z M130.7,115.39l0.43,2.91c0.13,0.86,0.6,1.22,1.49,1.22h3.12v0.67c0,3.02-1.49,4.18-5.2,4.18
		h-2.72c-3.67,0-5.13-1.23-5.13-4.38v-6.03c0-3.15,1.46-4.38,5.13-4.38h10.08c1,0,1.46-0.39,1.59-1.32l0.43-3.08h-12.17
		c-7.29,0-10.5,2.72-10.5,8.85v5.77c0,6.19,3.25,8.98,10.5,8.98h2.12c3.08,0,5.01-0.86,6.27-2.79h0.2l0.39,1.53
		c0.21,0.69,0.56,0.96,1.43,0.96h2.62v-11.6c0-1.06-0.43-1.48-1.49-1.48H130.7z"/>
	<path class="st0" d="M46.16,93.74c-2.33-1.42-4.2-3.58-5.28-6.07c-0.15-0.35-0.55-0.5-0.89-0.35c-0.34,0.15-0.5,0.55-0.35,0.89
		c1.18,2.75,3.25,5.12,5.81,6.69c0.12,0.07,0.25,0.1,0.38,0.1c0.22-0.01,0.43-0.12,0.55-0.32C46.58,94.36,46.48,93.94,46.16,93.74"
		/>
	<path class="st0" d="M58.24,94.6c-1.49,0.65-3.08,1.01-4.71,1.07c-1.44,0.06-2.87-0.12-4.24-0.53c-0.36-0.11-0.74,0.1-0.85,0.46
		c-0.11,0.36,0.1,0.74,0.46,0.85c1.52,0.45,3.09,0.65,4.69,0.59c1.8-0.07,3.55-0.47,5.2-1.18c0.35-0.15,0.5-0.55,0.35-0.9
		C58.98,94.61,58.58,94.45,58.24,94.6"/>
	<path class="st0" d="M66.87,86.95c0.12-0.36-0.08-0.74-0.44-0.86c-0.36-0.12-0.74,0.08-0.86,0.44c-0.78,2.4-2.23,4.53-4.2,6.14
		c-0.29,0.24-0.33,0.67-0.09,0.96c0.14,0.17,0.35,0.26,0.55,0.25c0.14-0.01,0.29-0.06,0.41-0.15C64.41,91.94,66.01,89.6,66.87,86.95
		"/>
	<path class="st0" d="M63.87,69.11c1.28,1.98,2,4.27,2.1,6.62l0.24,6.23c0.02,0.62,0,1.25-0.06,1.87c-0.04,0.37,0.23,0.71,0.61,0.75
		c0.03,0,0.07,0,0.1,0c0.33-0.01,0.61-0.27,0.65-0.61c0.07-0.68,0.09-1.38,0.07-2.06l-0.24-6.23c-0.1-2.6-0.9-5.12-2.31-7.31
		c-0.2-0.32-0.62-0.41-0.94-0.2C63.76,68.38,63.67,68.8,63.87,69.11"/>
	<path class="st0" d="M53.3,63.05c3.51,0.14,6.77,1.66,9.18,4.27c0.14,0.15,0.34,0.23,0.53,0.22c0.16-0.01,0.31-0.07,0.44-0.18
		c0.28-0.25,0.29-0.69,0.04-0.96c-2.65-2.88-6.25-4.55-10.13-4.71c-0.37-0.01-0.69,0.28-0.71,0.65
		C52.63,62.72,52.93,63.04,53.3,63.05"/>
	<path class="st0" d="M44.84,68.05c-0.28,0.25-0.3,0.68-0.05,0.96c0.14,0.16,0.34,0.23,0.53,0.22c0.15-0.01,0.31-0.06,0.43-0.18
		c1.48-1.34,3.3-2.23,5.25-2.57c0.37-0.06,0.62-0.42,0.55-0.79c-0.06-0.37-0.42-0.62-0.79-0.55C48.56,65.52,46.51,66.53,44.84,68.05
		"/>
	<path class="st0" d="M54.11,93.04c-0.01-0.38-0.33-0.67-0.71-0.65c-2.03,0.08-4.03-0.43-5.78-1.48c-0.32-0.19-0.74-0.09-0.93,0.24
		c-0.19,0.32-0.09,0.74,0.24,0.93c1.98,1.18,4.23,1.76,6.53,1.67C53.83,93.73,54.12,93.42,54.11,93.04"/>
	<path class="st0" d="M56.23,92.62c0.1,0.28,0.38,0.45,0.66,0.44c0.07,0,0.14-0.02,0.21-0.04c1.46-0.54,2.78-1.35,3.93-2.42
		c0.28-0.25,0.29-0.69,0.04-0.96c-0.26-0.28-0.69-0.29-0.96-0.04c-1.02,0.94-2.19,1.66-3.48,2.14
		C56.28,91.87,56.1,92.27,56.23,92.62"/>
	<path class="st0" d="M42.52,83.8c0.01-0.05,0.02-0.11,0.02-0.17l0-0.12l-0.03-0.65l-0.22-5.6c-0.08-2,0.42-3.97,1.43-5.69
		c0.19-0.32,0.08-0.74-0.24-0.93c-0.32-0.19-0.74-0.08-0.93,0.24c-1.14,1.95-1.7,4.18-1.61,6.43l0.22,5.6l0.03,0.65
		c0.01,0.36-0.27,0.67-0.63,0.69c-0.31,0.01-0.59-0.2-0.66-0.49c0-0.02,0-0.04,0-0.06c-0.02-0.23-0.04-0.47-0.05-0.71l-0.01-0.27
		l-0.23-5.96c-0.27-6.84,4.85-12.82,11.65-13.63c0.37-0.04,0.64-0.38,0.6-0.76c-0.04-0.37-0.38-0.64-0.76-0.6
		c-7.5,0.88-13.14,7.49-12.85,15.03l0.23,5.96l0.01,0.27l0.02,0.62c0.04,1.11,0.99,1.98,2.1,1.94C41.6,85.56,42.41,84.78,42.52,83.8
		"/>
	<path class="st0" d="M48.61,83.46l-0.04-0.06l0,0c-0.03-0.04-0.05-0.08-0.07-0.12l0,0l0,0l0,0l0,0l0,0l0,0l0,0l0,0l0,0l0,0l0,0l0,0
		l0-0.01l0,0l0,0l0,0l0,0l0,0l0,0l0,0l0-0.01v0c-0.39-0.69-0.63-1.49-0.66-2.34l-0.1-2.62c-0.03-0.72,0.09-1.42,0.34-2.05l0.04-0.12
		c0.06-0.2,0.03-0.4-0.07-0.56c-0.08-0.13-0.21-0.24-0.37-0.29c-0.33-0.11-0.68,0.05-0.82,0.36l-0.03,0.08l0,0.01
		c-0.01,0.04-0.03,0.07-0.04,0.11c-0.29,0.79-0.44,1.64-0.41,2.53l0.1,2.62c0.04,1.06,0.34,2.05,0.82,2.92
		c0.07,0.11,0.15,0.22,0.22,0.33c0.12,0.17,0.3,0.26,0.49,0.28c0.15,0.01,0.31-0.02,0.45-0.12C48.7,84.14,48.78,83.75,48.61,83.46"
		/>
	<path class="st0" d="M63.62,87.16c0.89-1.78,1.32-3.76,1.25-5.75l-0.19-5.02c-0.11-2.75-1.18-5.4-3.03-7.45c0,0,0,0,0,0
		c-0.62-0.69-1.32-1.31-2.08-1.84c-0.31-0.22-0.73-0.14-0.95,0.17c-0.22,0.31-0.14,0.73,0.17,0.95c0.67,0.47,1.29,1.02,1.84,1.63
		c0,0,0,0,0,0c1.63,1.82,2.59,4.16,2.68,6.6l0.2,5.02c0.07,1.81-0.34,3.62-1.17,5.23c-0.1,0.17-0.25,0.3-0.43,0.36
		c-0.21,0.07-0.43,0.06-0.63-0.03c-0.2-0.09-0.35-0.26-0.42-0.46c-0.07-0.2-0.06-0.42,0.03-0.61c0.91-1.52,1.35-3.26,1.28-5.03
		l-0.15-3.82c-0.2-5.07-4.48-9.03-9.55-8.84c-5.07,0.2-9.03,4.48-8.84,9.55l0.15,3.82c0.1,2.6,1.28,4.91,3.09,6.52
		c0.1,0.08,0.2,0.16,0.31,0.23c0.17,0.12,0.37,0.15,0.55,0.11c0.15-0.04,0.29-0.12,0.38-0.26c0.2-0.27,0.16-0.64-0.07-0.87
		c-0.04-0.03-0.07-0.06-0.11-0.09l0,0l0,0c-0.04-0.03-0.07-0.06-0.11-0.09l0,0l0,0l0,0l-0.01,0l0,0l-0.02-0.02l0,0
		c-1.55-1.37-2.56-3.34-2.64-5.57l-0.15-3.82c-0.17-4.32,3.21-7.97,7.53-8.14c4.32-0.17,7.97,3.21,8.14,7.53l0.15,3.82
		c0.06,1.53-0.33,3.03-1.12,4.34c0,0,0,0.01-0.01,0.01c-0.01,0.01-0.01,0.02-0.02,0.03c-0.01,0.02-0.02,0.04-0.03,0.06
		c0,0.01-0.01,0.01-0.01,0.02c-0.21,0.51-0.23,1.06-0.05,1.58c0.2,0.55,0.6,0.99,1.12,1.24c0.32,0.15,0.67,0.22,1.01,0.21
		c0.22-0.01,0.44-0.05,0.65-0.13c0.49-0.17,0.89-0.51,1.14-0.95c0,0,0,0,0,0c0-0.01,0.01-0.01,0.01-0.02
		c0.03-0.05,0.06-0.1,0.08-0.15C63.61,87.2,63.61,87.18,63.62,87.16"/>
	<path class="st0" d="M54.09,65.04c-0.39-0.04-0.79-0.07-1.19-0.07c-0.38-0.01-0.68,0.3-0.69,0.67c0,0.38,0.3,0.68,0.67,0.69
		c0.35,0,0.7,0.02,1.05,0.06c0.03,0,0.07,0,0.1,0c0.33-0.01,0.61-0.27,0.65-0.61C54.73,65.41,54.46,65.08,54.09,65.04"/>
	<path class="st0" d="M44.26,89.91c0.14,0.15,0.34,0.23,0.53,0.22c0.16-0.01,0.31-0.07,0.43-0.18c0.28-0.26,0.29-0.69,0.04-0.96
		c-0.67-0.72-1.23-1.53-1.67-2.4c-0.17-0.34-0.58-0.47-0.91-0.3c-0.34,0.17-0.47,0.58-0.3,0.91C42.88,88.19,43.51,89.1,44.26,89.91"
		/>
	<path class="st1" d="M46.15,93.24c0.92,0,1.67,0.75,1.67,1.67c0,0.92-0.75,1.67-1.67,1.67c-0.92,0-1.67-0.75-1.67-1.67
		C44.48,93.99,45.23,93.24,46.15,93.24"/>
	<path class="st1" d="M43.1,69.69c0.92,0,1.67,0.75,1.67,1.67c0,0.92-0.75,1.67-1.67,1.67c-0.92,0-1.67-0.75-1.67-1.67
		C41.42,70.44,42.17,69.69,43.1,69.69"/>
	<path class="st1" d="M58.62,65.59c0.92,0,1.67,0.75,1.67,1.67c0,0.92-0.75,1.67-1.67,1.67c-0.92,0-1.67-0.75-1.67-1.67
		C56.94,66.34,57.69,65.59,58.62,65.59"/>
	<path class="st1" d="M66.15,85.21c0.92,0,1.67,0.75,1.67,1.67c0,0.92-0.75,1.67-1.67,1.67c-0.92,0-1.67-0.75-1.67-1.67
		C64.48,85.96,65.23,85.21,66.15,85.21"/>
	<path class="st0" d="M58.41,83.61c0.3,0.06,0.58-0.09,0.72-0.34c0.03-0.06,0.06-0.13,0.07-0.2c0.3-1.53,0.29-3.08-0.02-4.61
		c-0.07-0.37-0.43-0.61-0.8-0.53c-0.37,0.07-0.61,0.43-0.53,0.8c0.27,1.36,0.28,2.73,0.02,4.08C57.8,83.19,58.04,83.54,58.41,83.61"
		/>
	<path class="st1" d="M50.91,84.06c0.24-0.3,0.2-0.74-0.1-0.98c-0.3-0.24-0.74-0.2-0.98,0.1c-0.66,0.8-1.02,1.8-1.02,2.83
		c0,2.47,2,4.47,4.47,4.47c2.47,0,4.47-2,4.47-4.47c0-2.49-2.14-4.01-3.93-5.34c-1.51-1.13-3.61-2.57-3.61-4.68
		c0-1.7,1.37-3.07,3.07-3.07c1.7,0,3.07,1.37,3.07,3.07c0,0.87-0.36,1.69-1,2.27c-0.28,0.26-0.31,0.7-0.05,0.99
		c0.26,0.28,0.7,0.31,0.99,0.05c0.93-0.85,1.46-2.04,1.46-3.3c0-2.47-2-4.47-4.47-4.47c-2.47,0-4.47,2-4.47,4.47
		c0,2.72,2.2,4.34,4.17,5.8c1.33,0.99,3.37,2.37,3.37,4.22c0,1.7-1.37,3.07-3.07,3.07c-1.7,0-3.07-1.37-3.07-3.07
		C50.21,85.3,50.46,84.61,50.91,84.06"/>
	<path class="st2" d="M24.54,107.24C6.74,99.09-3.49,79.31,1.09,59.49c2.39-10.32,8.39-18.86,16.35-24.61
		C33.77,23.19,53.04,12.21,70.15,1.3c3.89-2.47,9.05-1.32,11.53,2.57c2.47,3.89,1.32,9.05-2.57,11.53l-9.83,6.27l-39,24.55
		l-0.01-0.01c-0.86,0.53-1.7,1.1-2.5,1.7L17.44,34.88L27.77,47.9c-5.88,4.45-10.29,10.9-12.08,18.65
		C12.88,78.64,17.2,90.72,25.9,98.4c2,1.77,4.99,3.12,4.31,6.17c-0.48,2.15-2.64,3.48-4.78,2.98
		C25.11,107.48,24.82,107.37,24.54,107.24"/>
	<path class="st2" d="M78.07,35.89l-7,4.46L41.49,58.79c-1.75,1.07-2.3,1.46-3.37,3.3c-1.86,3.2-1,6.22-0.93,13.1
		c0.02,1.87-0.24,3.73-0.35,5.6c-0.11,1.9-0.07,3.8,0.12,5.69c0.03,0.28-0.19,0.53-0.47,0.52c-0.26-0.01-0.49-0.15-0.7-0.3
		c-1.29-0.92-2.14-2.35-2.68-3.84c-0.55-1.49-0.82-3.06-1.2-4.6c-0.09-0.37-0.25-0.92-0.47-1.47c-0.39-0.98-1.77-1.04-2.22-0.09
		c-1.6,3.38,0.59,7.02,2.83,9.68c1.37,1.63,3.04,2.98,4.55,4.49c0.42,0.42,0.84,0.87,1.13,1.39c0.29,0.52,0.45,1.15,0.32,1.73
		c-0.02,0.07-0.04,0.14-0.06,0.21c-0.09,0.22-0.37,0.3-0.57,0.17c-1.45-0.95-4.13-3.09-1.67-0.78c0.58,0.54,1.19,1.1,1.76,1.67
		c0.52,0.51,1.05,1.06,1.39,1.75c0.39,0.78,0.45,1.62,0.15,2.28c-0.01,0.03-0.03,0.06-0.06,0.09c-0.21,0.24-0.62,0.12-0.86-0.03
		c-2.24-1.4-6.12-5.19-3.16-1.72c0.54,0.63,1.09,1.29,1.37,2.07c0.29,0.78,0.28,1.72-0.23,2.38c-0.15,0.16-0.43,0.12-0.63-0.01
		c-2.6-1.29-7.52-5.93-9.71-8.34c-6.42-7.06-9.06-16.86-6.87-26.31c1.5-6.47,5.1-12.17,10.28-16.29l0.55-0.41
		c0.35-0.26,0.71-0.52,1.07-0.77l2.6,3.27l-2.6-3.27l0.11-0.08L70.1,25.39c2.09-1.3,3.76-2.33,6.42-1.72
		c3.53,0.82,5.73,4.34,4.92,7.88C80.99,33.5,79.72,35.04,78.07,35.89"/>
	<path class="st1" d="M81.39,51.2c17.81,8.14,28.04,27.93,23.45,47.75c-2.39,10.32-8.39,18.86-16.35,24.61
		c-16.33,11.69-35.6,22.67-52.71,33.58c-3.89,2.47-9.05,1.32-11.53-2.57c-2.47-3.89-1.32-9.05,2.57-11.53l9.83-6.27l39-24.55
		l0.01,0.01c0.86-0.53,1.7-1.1,2.5-1.7l10.33,13.02l-10.33-13.02c5.88-4.45,10.29-10.9,12.08-18.65
		c2.8-12.09-1.52-24.18-10.21-31.85c-2-1.77-4.99-3.12-4.31-6.17c0.48-2.15,2.64-3.48,4.78-2.98C80.82,50.95,81.12,51.06,81.39,51.2
		"/>
	<path class="st1" d="M27.86,122.54l7-4.46l29.58-18.44c1.75-1.07,2.3-1.46,3.37-3.3c1.86-3.2,1-6.22,0.93-13.1
		c-0.02-1.87,0.24-3.73,0.35-5.6c0.11-1.9,0.07-3.8-0.12-5.69c-0.03-0.28,0.19-0.53,0.47-0.52c0.26,0.01,0.49,0.15,0.7,0.3
		c1.29,0.92,2.14,2.35,2.68,3.84c0.55,1.49,0.82,3.06,1.2,4.6c0.09,0.37,0.25,0.92,0.47,1.47c0.39,0.98,1.77,1.04,2.22,0.09
		c1.6-3.38-0.59-7.02-2.83-9.68c-1.37-1.63-3.04-2.98-4.55-4.49c-0.42-0.42-0.84-0.87-1.13-1.39c-0.29-0.52-0.45-1.15-0.32-1.73
		c0.02-0.07,0.04-0.14,0.06-0.21c0.09-0.22,0.37-0.3,0.57-0.17c1.45,0.95,4.13,3.09,1.67,0.78c-0.58-0.54-1.19-1.1-1.76-1.67
		c-0.52-0.51-1.05-1.06-1.39-1.75c-0.39-0.78-0.45-1.62-0.15-2.28c0.01-0.03,0.03-0.06,0.06-0.09c0.21-0.24,0.62-0.12,0.85,0.03
		c2.24,1.4,6.12,5.19,3.16,1.72c-0.54-0.63-1.09-1.29-1.37-2.07c-0.29-0.78-0.28-1.72,0.23-2.38c0.15-0.16,0.43-0.12,0.63,0.01
		c2.6,1.29,7.52,5.93,9.71,8.34c6.42,7.06,9.06,16.86,6.87,26.31c-1.5,6.47-5.1,12.17-10.28,16.29l-0.55,0.41
		c-0.35,0.26-0.71,0.52-1.07,0.77l-2.6-3.27l2.6,3.27l-0.12,0.08l-39.16,24.48c-2.09,1.3-3.76,2.33-6.42,1.72
		c-3.53-0.82-5.73-4.34-4.92-7.88C24.95,124.94,26.22,123.4,27.86,122.54"/>
</g>
</svg>
