<?xml version="1.0" encoding="UTF-8"?>
<!DOCTYPE svg PUBLIC "-//W3C//DTD SVG 1.1//EN" "http://www.w3.org/Graphics/SVG/1.1/DTD/svg11.dtd">
<!-- Creator: CorelDRAW (Evaluation Version) -->
<svg xmlns="http://www.w3.org/2000/svg" xml:space="preserve" width="6.5in" height="3in" version="1.1" style="shape-rendering:geometricPrecision; text-rendering:geometricPrecision; image-rendering:optimizeQuality; fill-rule:evenodd; clip-rule:evenodd"
viewBox="0 0 8500 11000"
 xmlns:xlink="http://www.w3.org/1999/xlink"
 xmlns:xodm="http://www.corel.com/coreldraw/odm/2003">
 <defs>
  <style type="text/css">
   <![CDATA[
    .fil1 {fill:#832C2C}
    .fil0 {fill:#F8A839}
    .fil2 {fill:#892E29;fill-rule:nonzero}
   ]]>
  </style>
 </defs>

  <metadata id="CorelCorpID_0Corel-Layer"/>
  <g id="_1361396955072">
   <path class="fil0" d="M3399.22 8160.55c26.97,0 -6.79,-316.33 14.63,-360.97 27.22,7.27 135.43,154.09 153.99,177.72l109.39 139.39c11.74,16.9 19.12,33.06 42.18,40.75 13.78,4.59 68.19,7.43 74.01,4.41 12.36,-6.4 5.8,-57.43 5.8,-74.46 -0.02,-54.49 -1.78,-111.91 -0.16,-166.01l5.04 -160.82c0,-56.91 0,-113.82 0,-170.73 -31.28,-7.28 -68.97,-4.88 -107.31,-4.88 -14.04,60.28 -4.88,283.53 -4.88,365.85 -20.71,-13.87 -61.37,-65.58 -81.42,-89.31l-78.44 -97.17c-14.22,-17.3 -24.27,-31.53 -38.61,-49.2l-77.44 -98.17c-29.43,-38.54 -36.73,-32 -99.7,-32 -23.48,0 -14.67,45.98 -14.64,68.29l-0.71 438.31c-4.67,40.98 -16.19,61.09 15.02,64.46 28.39,3.06 52.88,4.55 83.26,4.55z"/>
   <path class="fil0" d="M5911.41 7819.09l-258.54 0c-56.73,0 25.67,-224.39 -58.54,-224.39l-48.78 4.88 -4.81 151.28c0.19,32.83 -4.78,44.27 -5.14,72.91 -0.84,68.01 3.03,266.62 14.83,317.27 23.26,5.42 35.96,11.6 63.04,4.73 23.87,-6.06 20.24,-23.52 19.95,-63.2 -0.38,-51.92 -5.39,-117.25 4.81,-161.04 47.25,-11.01 213.42,-4.88 273.17,-4.88 23.48,0 14.67,45.98 14.64,68.29 -0.36,219.41 -22.38,166.91 78.22,176.3 54.59,5.09 18.96,-6.59 29.35,-132.13 8.35,-100.83 4.62,-315.5 4.62,-424.65 0,-21.13 -20.17,-13.56 -42.4,-16.14 -82.48,-9.55 -70.54,-3.36 -69.88,45.31l0.13 131.84c0.22,23.27 7.13,53.62 -14.68,53.62z"/>
   <path class="fil0" d="M4916.29 7848.35c0,90.02 7.54,161.69 79.07,233.12 10.74,10.73 22.07,19.11 34.55,28.87 56.95,44.55 110.44,53.57 167.11,55.09l70.49 0c44.03,0 160.98,-54.14 160.98,-92.68 0,-22.54 -17.21,-35.25 -30.33,-47.85 -49.86,-47.9 -42.51,42.97 -194.06,42.97 -118.44,0 -218.87,-128.93 -166.01,-268.45 23.89,-63.08 90.44,-121.79 156.26,-121.79 38.81,0 79.56,-0.54 113.94,17.76 21.74,11.57 43.21,35.89 61.67,35.89 28.74,0 53.01,-33.99 63.41,-53.66 -13.42,-57.59 -119.04,-97.56 -195.12,-97.56 -127.16,0 -193.86,21.5 -269.04,116.32 -27.72,34.96 -52.91,102.87 -52.91,151.97z"/>
   <path class="fil0" d="M2638.25 8165.43c10.25,-43.98 9.44,-161.94 14.63,-224.39 45.57,0 91.19,0.23 136.75,0.17 29.54,-0.04 36.03,-5.49 63.25,-5.43 36.87,0.09 27.92,8.65 63.41,0.38 0,-115.97 26.17,-86.53 -190.43,-87.65 -13.24,-0.07 -20.22,-1.09 -32,-2.3 -35.92,-3.69 4.25,8.94 -45.87,-2.73l0 -165.85c57.2,0 265.61,-1.18 302.44,-9.76l0 -82.93 -395.12 0c-23.81,0 -14.65,50.38 -14.63,73.17l0.01 263.42c0.13,57.47 -4.7,108.21 -4.89,170.73 -0.19,63.55 -20.29,73.17 102.44,73.17z"/>
   <path class="fil0" d="M4433.37 8121.53c0,20.54 17.52,22.92 38.35,25.06 82.27,8.46 242.2,4.21 332.38,4.21 16.81,0 18.89,-3.61 34.15,-4.88 0,-94.43 11.44,-63.41 -195.12,-63.41 -21.99,0 -99.5,-4.5 -109.76,-12.2 -11.39,-8.56 -5.33,-0.05 -9.2,-20.06 -1.45,-7.49 -1.76,-13.81 -3.03,-26.24 -7.93,-77.41 -19.27,-122.09 63.33,-122.24 24.15,-0.05 209.87,19.99 209.87,-14.39 0,-46.91 5.04,-51.3 -28.98,-53.94 -82.96,-6.46 -95.87,0.29 -180.78,0.29 -64.69,0 -63.41,1.86 -63.41,-102.44 0,-70.4 45.66,-63.42 131.71,-63.41 32.52,0 65.04,-0.04 97.56,0 74.61,0.1 78.04,5.18 78.04,-39.03 0,-23.34 -16.51,-34.15 -39.02,-34.15l-356.09 0 0 526.83z"/>
   <path class="fil0" d="M3887.02 7599.58c0,89.82 -14.07,68.29 121.95,68.29l46.09 17.32c21.35,14.71 12.44,150.32 12.44,192.43l-0.06 204.94c-0.17,29.1 4.46,41.62 4.94,63.35 96.6,0 92.49,24.42 87.96,-126.99l-5.04 -146.18c0,-38.61 2.02,-66.32 4.62,-97.82 1.41,-17.06 -0.41,-36.3 0.1,-53.56 0.72,-24.59 5.04,-24.4 5.04,-48.62 55.32,0 104.96,-4.88 165.85,-4.88 25.24,-29.12 9.76,-11.65 9.76,-68.29 -49.74,-11.59 -309.66,-4.88 -380.48,-4.88 -32.44,0 -42.23,4.88 -73.17,4.88z"/>
   <path class="fil0" d="M3043.12 7682.5c0,85.47 -4.3,369.3 3.38,435.65 5.75,49.64 -20.12,42.4 94.19,42.4 20.56,0 15.17,-22.02 14.8,-43.73l4.71 -180.66c0,-136.68 1.65,-214.17 -9.76,-351.22 -22.39,0 -85.17,-8.78 -98.07,4.38 -7.06,7.21 -9.25,74.69 -9.25,93.19z"/>
   <g>
    <path class="fil0" d="M4765.07 4149.1c0,301.44 -29.86,477.72 -127.52,721.26 -67.68,168.76 -207.12,386.48 -339.45,523.96 -16.98,17.64 -31.55,31.35 -48.88,48.68l-99.46 90.78c-178.24,143.84 -252.85,197.61 -465.98,304.75 -44.76,22.5 -86.44,36.59 -134.79,55.45 -33.74,13.17 -117.53,40.36 -125.38,69.75l77.97 -0.05c96.96,0.2 155.08,-6.96 251.01,-22.2 102.4,-16.26 206.96,-42.25 296.02,-69.83 232.81,-72.11 428.68,-154.96 639.97,-272.22l166.35 -101.94c73.06,-49.7 203.11,-145 257.69,-200.85l97.59 -87.78c15.78,-15.87 28.04,-28.13 43.9,-43.9l131.17 -146.88c53.76,-66.4 108.39,-132.4 156.39,-204.59l140.74 -225.11c32.06,-55.59 125.58,-234.51 153.03,-300.63 8.83,-21.27 18.56,-43.56 28.81,-63.87 11.48,-22.75 17.9,-42.48 27.8,-64.89 9.37,-21.23 18.8,-41.14 27.33,-65.35 15.66,-44.45 33.58,-86.99 50.59,-129.9 89.13,-224.77 201.43,-612.54 240.46,-852.22 7.46,-45.8 18.07,-113.5 18.07,-167.3 -27.22,0.61 -46.46,23.03 -73.2,43.87 -113.85,88.73 -201.11,185.63 -354.2,236.04 -337.55,111.14 -703.11,-41.57 -992.17,-192.04l-185.53 -107.15c-13.56,-8.12 -21.94,-13.35 -35.84,-22.69 -95.69,-64.32 -194.27,-123.15 -286.62,-191.43 -12.55,-9.28 -21.11,-15.08 -34.41,-24.13 -18.31,-12.46 -18.14,-19.96 -42.9,-20.52 15.18,28.69 28.95,47.42 46.02,75.93 16.93,28.28 30.91,51.63 47.59,79.24 32.61,54.02 62.53,103.96 95.1,158.56 71.82,120.4 115.82,200.77 170.19,337.13 25.43,63.78 46.01,117.61 68.54,185.12 21,62.91 42.04,130.61 55.9,197.76 3.61,17.46 8.37,32.05 12.17,51.25l27.33 162.91c8.84,73.97 18.63,149.02 18.63,235.02z"/>
    <path class="fil0" d="M3643.12 5275.93c16.89,-35.19 24.39,-212.31 24.39,-273.17 0,-324.47 -109.8,-638 -299.65,-890.59 -22.09,-29.39 -160.92,-202.05 -163.77,-236.23 146.17,-77.35 174.73,-72.52 321.7,-166.1 119.74,-76.25 212.32,-181.65 298.53,-291.71l140.74 -220.24c91.56,48.45 227.04,426.43 259.16,531.08 6.61,21.53 12.09,47.34 18.28,69.53 87.39,313.26 102.68,687.43 -15.44,988.21 -83.37,212.29 -144.02,295.04 -276.63,464.83 -84.06,107.63 -201.02,217.14 -306.18,303.57 -26.04,21.4 -50.02,38.31 -77.12,59.46 -18.76,14.64 -64.74,45.23 -70.35,66.24 64.22,0 180.43,-52.98 223.46,-78.98 198.37,-119.87 400.61,-267.88 519.57,-470.67 10.78,-18.37 18.39,-29.72 29.77,-48.28 109.98,-179.46 172.33,-343.99 209.76,-551.22 48.76,-269.97 28.34,-486.75 -26.85,-752.89 -45.74,-220.55 -135,-425.72 -233.78,-624.75 -32,-64.47 -193,-349.7 -253.62,-365.89 -39.5,26.45 -78.4,140.96 -102.5,195.06l-47.07 99.27c-16.09,32.46 -36.57,67.83 -55.25,95.96l-92.73 126.79c-7.54,9.76 -9.51,11.29 -18.29,20.73l-92.73 92.63c-141.14,132.08 -291.13,209.97 -505.03,241.31 -45,6.59 -84.94,10.57 -129.45,16.89l-226.51 32.17c-19.43,2.38 -23.51,-3.93 -26.19,10.77 -2.97,16.3 56.22,59.04 74.78,74.75 14.56,12.31 24.21,21.43 39.36,33.81l258.48 224.45c9.7,8.55 12.17,8.6 21.88,17.15 70.18,61.8 152.44,157.32 209.96,233.94l88.05 136.34c72,142.06 102.36,195.43 157.56,364.39 24.52,75.06 39.54,160.2 55.84,241.72l41.71 177.8c16.7,56.02 6.55,46.63 26.17,51.87z"/>
    <path class="fil0" d="M5091.9 2529.59c0,209.22 172.18,404.88 351.22,404.88 104.71,0 118.22,4.26 216.79,-36.87 308.91,-128.91 255.49,-621.21 -18.48,-717.53 -35.99,-12.65 -56.26,-18.62 -74.8,-21.21l-123.5 0 -67.72 20.08c-104.6,32.05 -208.31,100.96 -250.19,203.47 -15.59,38.18 -33.31,92.3 -33.31,147.18z"/>
    <path class="fil0" d="M2443.13 4344.22c85.33,45.15 203.4,69.76 297.56,107.31 23.36,9.32 47.2,15.83 71.8,25.76 26,10.49 47.8,18.34 73.19,29.24 46.51,19.98 95.98,42.85 137.05,67.83 79.48,48.35 111.34,70.26 175.32,127.12 83.06,73.81 63.35,62.91 144.09,158.34 14.42,17.04 36.17,38.2 47.16,55.28 14.15,22 20.27,45.83 53.81,48.62 0,-156.85 -84.63,-336.48 -167.78,-461.49 -72.8,-109.47 -204.77,-249.99 -301.95,-332.19 -21.41,-18.11 -85.92,-74.61 -110.76,-74.61 -50.63,0 -322.87,162.46 -400.87,223.52 -11.43,8.95 -14.78,10.8 -18.64,25.26z"/>
    <path class="fil0" d="M2399.22 4861.3c67.55,0 158.9,2.26 223.04,-6.22l118.28 -8.58c27.64,-0.93 88.94,2.98 114.57,7.7 127.59,23.49 311.05,113.35 381.63,122.06 32.43,4 20.56,-9.62 9.05,-24.35 -113.23,-144.95 -123.43,-153.28 -304.18,-262.24 -96.92,-58.42 -245.43,-145.42 -366.77,-145.42 -25.73,0 -41.31,32.58 -61.36,65.47 -54.23,88.95 -72.67,117.83 -116,210.91 -6.4,13.75 -23.98,40.69 1.74,40.69z"/>
    <path class="fil1" d="M3687.02 3861.3c30.46,14.61 35.3,5.98 72.7,10.22 21.63,2.45 49.13,10.09 54.13,28.8 -74.6,6.2 -122.54,-7.68 -126.83,43.9 27.24,0 136.59,-6.9 136.59,9.76 0,62.97 -103.38,51.94 -131.71,58.54 0,56.52 32.53,71.06 81.49,128.27 41.37,48.33 37.4,81.49 128.27,81.49 -2.51,-30.16 -70.91,-99.36 -98.83,-130.44 -14.48,-16.12 -21.4,-28.02 -32.88,-45.17 50.39,-26.66 69.06,-15.44 96.39,-49.95 25.72,-32.48 -1.14,-43.8 46.37,-51.19 23.13,-3.6 22.69,1.07 33.74,-15.9 22.45,-34.49 -19.66,-24.42 -54.55,-24.42 -44.34,-66.22 18.24,-12.78 48.89,-43.79 6.95,-7.02 11.75,-17.48 14.52,-29.38 -27.83,0 -33.74,-4.88 -63.42,-4.88l-175.61 0c-16.66,0 -25.91,19.7 -29.27,34.15z"/>
   </g>
   <g>
    <path class="fil2" d="M1451.28 6482.11c-46.54,0 -65.72,17.8 -65.72,61.61l0 17.78c0,45.2 13.68,58.88 72.56,72.63l324.54 71.16c191.7,41.09 256.09,106.87 256.09,260.2l0 68.44c0,147.9 -98.64,228.68 -282.11,228.68l-618.94 0 17.8 -127.33c5.52,-38.36 24.69,-54.77 65.72,-54.77l523.09 0c47.97,0 69.88,-17.84 69.88,-62.99l0 -38.36c0,-46.54 -15.07,-61.61 -76.72,-75.29l-313.58 -68.5c-193.05,-42.41 -262.87,-113.65 -262.87,-266.98l0 -38.36c0,-149.28 98.56,-230.07 282.05,-230.07l560.04 0 -19.11 127.38c-5.5,38.31 -24.7,54.76 -65.79,54.76l-466.91 0z"/>
    <path class="fil2" d="M2151.02 6299.99l224.57 0 0 610.7c0,131.49 63,180.76 212.28,180.76l45.15 0c149.28,0 212.28,-49.26 212.28,-180.76l0 -610.7 224.56 0 0 603.86c0,250.59 -127.38,371.08 -432.72,371.08l-52.04 0c-306.74,0 -434.07,-120.49 -434.07,-371.08l0 -603.86z"/>
    <path class="fil2" d="M3431.38 6482.11l0 598.41 320.43 0c145.17,0 212.21,-50.7 212.21,-180.76l0 -236.89c0,-130.1 -67.05,-180.76 -212.21,-180.76l-320.43 0zm323.15 -182.14c306.73,0 434.11,120.54 434.11,371.13l0 220.44c0,250.59 -127.38,371.07 -434.11,371.07l-547.72 0 0 -962.64 547.72 0z"/>
    <polygon class="fil2" points="4310.51,7262.61 4310.51,6299.97 4535.08,6299.97 4535.08,6679.28 5007.5,6679.28 5007.5,6299.97 5232.07,6299.97 5232.07,7262.61 5007.5,7262.61 5007.5,6861.42 4535.08,6861.42 4535.08,7262.61 "/>
    <path class="fil2" d="M6008.5 6865.52c8.22,0 10.95,-5.5 8.22,-12.34l-134.21 -330.04 -134.17 330.04c-2.78,6.84 0,12.34 8.18,12.34l251.98 0zm-253.32 -521.68c15.07,-32.91 38.31,-46.59 73.95,-46.59l108.13 0c34.27,0 58.88,13.68 73.95,46.59l430.01 918.78 -191.71 0c-38.36,0 -65.77,-16.41 -78.06,-46.54l-73.93 -169.8c-4.13,-9.61 -9.63,-12.34 -19.19,-12.34l-390.24 0c-9.57,0 -15.07,2.72 -19.18,12.34l-75.29 169.8c-12.34,30.13 -39.75,46.54 -78.06,46.54l-191.71 0 431.35 -918.78z"/>
    <path class="fil2" d="M6532.98 7262.61l0 -962.64 194.44 0c110.92,0 153.39,16.47 198.55,105.48l313.57 621.65c9.63,16.39 17.52,21.91 17.52,21.91l-2.44 -268.38 0 -480.66 221.83 0 0 962.64 -194.42 0c-112.31,0 -153.39,-16.39 -198.55,-105.41l-313.59 -621.71c-8.22,-16.41 -13.66,-21.91 -28.74,-21.91l13.02 0 0.66 749.02 -221.84 0z"/>
   </g>
  </g>
</svg>
